<svg xmlns="http://www.w3.org/2000/svg" width="16" height="16"><path d="M2.25 7c-.13807 1e-5-.24999.11193-.25.25v1.5c1e-5.13807.11193.24999.25.25h11.5c.13806-1e-5.24999-.11193.25-.25v-1.5c-1e-5-.13807-.11194-.24999-.25-.25zm0-5c-.13807 1e-5-.24999.11193-.25.25v1.5c1e-5.13807.11193.24999.25.25h11.5c.13806-1e-5.24999-.11193.25-.25v-1.5c-1e-5-.13807-.11194-.24999-.25-.25zm0 10c-.13807 1e-5-.24999.11194-.25.25v1.5c1e-5.13807.11193.24999.25.25h11.5c.13806-1e-5.24999-.11193.25-.25v-1.5c-1e-5-.13806-.11194-.24999-.25-.25z" fill="#333"/></svg>